<svg width="539" height="35" viewBox="0 0 539 35" fill="none" xmlns="http://www.w3.org/2000/svg">
<rect x="52.2012" y="13.9729" width="98.0907" height="6" rx="3" fill="#EFF0F7"/>
<rect x="52.2012" y="13.9729" width="49.045" height="6" rx="3" fill="#4A3AFF"/>
<rect x="220.291" y="13.9729" width="98.0907" height="6" rx="3" fill="#EFF0F7"/>
<rect x="388.381" y="13.9729" width="98.0907" height="6" rx="3" fill="#EFF0F7"/>
<circle cx="17.2012" cy="17.4729" r="17" fill="#4A3AFF"/>
<path d="M16.4892 22V12.72L14.6812 13.136V11.888L17.1612 10.8H18.2492V22H16.4892Z" fill="white"/>
<circle cx="185.291" cy="17.4729" r="17" fill="#EFF0F7"/>
<path d="M182.299 22V21.056C183.056 20.4587 183.771 19.856 184.443 19.248C185.126 18.6293 185.728 18.0213 186.251 17.424C186.784 16.8267 187.2 16.24 187.499 15.664C187.808 15.088 187.963 14.5333 187.963 14C187.963 13.6053 187.894 13.2373 187.755 12.896C187.627 12.5547 187.414 12.2827 187.115 12.08C186.816 11.8667 186.411 11.76 185.899 11.76C185.408 11.76 184.998 11.872 184.667 12.096C184.336 12.3093 184.086 12.5973 183.915 12.96C183.755 13.3227 183.675 13.712 183.675 14.128H182.379C182.379 13.392 182.534 12.7627 182.843 12.24C183.152 11.7067 183.574 11.3013 184.107 11.024C184.64 10.7467 185.243 10.608 185.915 10.608C186.907 10.608 187.718 10.8907 188.347 11.456C188.987 12.0107 189.307 12.8427 189.307 13.952C189.307 14.6133 189.142 15.2693 188.811 15.92C188.48 16.56 188.059 17.184 187.547 17.792C187.035 18.3893 186.486 18.9493 185.899 19.472C185.323 19.9947 184.784 20.464 184.283 20.88H189.691V22H182.299Z" fill="#6F6C90"/>
<circle cx="353.381" cy="17.4729" r="17" fill="#EFF0F7"/>
<path d="M353.053 22.192C352.338 22.192 351.693 22.064 351.117 21.808C350.541 21.5413 350.077 21.1467 349.725 20.624C349.384 20.1013 349.202 19.4507 349.181 18.672H350.541C350.552 19.312 350.776 19.8667 351.213 20.336C351.65 20.7947 352.264 21.024 353.053 21.024C353.842 21.024 354.434 20.8053 354.829 20.368C355.234 19.9307 355.437 19.4027 355.437 18.784C355.437 18.2613 355.309 17.8347 355.053 17.504C354.808 17.1733 354.472 16.928 354.045 16.768C353.629 16.608 353.17 16.528 352.669 16.528H351.837V15.392H352.669C353.394 15.392 353.96 15.2267 354.365 14.896C354.781 14.5653 354.989 14.1013 354.989 13.504C354.989 13.0027 354.824 12.592 354.493 12.272C354.173 11.9413 353.693 11.776 353.053 11.776C352.434 11.776 351.938 11.9627 351.565 12.336C351.192 12.6987 350.984 13.1573 350.941 13.712H349.581C349.613 13.104 349.773 12.5653 350.061 12.096C350.36 11.6267 350.765 11.264 351.277 11.008C351.789 10.7413 352.381 10.608 353.053 10.608C353.778 10.608 354.381 10.736 354.861 10.992C355.352 11.248 355.72 11.5893 355.965 12.016C356.221 12.4427 356.349 12.912 356.349 13.424C356.349 13.9893 356.194 14.5067 355.885 14.976C355.576 15.4347 355.112 15.744 354.493 15.904C355.154 16.0427 355.704 16.3573 356.141 16.848C356.578 17.3387 356.797 17.984 356.797 18.784C356.797 19.4027 356.653 19.9733 356.365 20.496C356.088 21.008 355.672 21.4187 355.117 21.728C354.562 22.0373 353.874 22.192 353.053 22.192Z" fill="#6F6C90"/>
<circle cx="521.471" cy="17.4729" r="17" fill="#EFF0F7"/>
<path d="M522.727 22V19.6H517.047V18.56L522.487 10.8H524.055V18.416H525.719V19.6H524.055V22H522.727ZM518.535 18.416H522.791V12.288L518.535 18.416Z" fill="#6F6C90"/>
</svg>
