<svg width="539" height="35" viewBox="0 0 539 35" fill="none" xmlns="http://www.w3.org/2000/svg">
<rect x="52.2012" y="13.8232" width="98.0907" height="6" rx="3" fill="#4A3AFF"/>
<rect x="220.291" y="13.8232" width="98.0907" height="6" rx="3" fill="#4A3AFF"/>
<rect x="388.381" y="13.8232" width="98.0907" height="6" rx="3" fill="#4A3AFF"/>
<circle cx="17.2012" cy="17.3232" r="17" fill="#4A3AFF"/>
<path d="M16.4892 22.3232V13.0432L14.6812 13.4592V12.2112L17.1612 11.1232H18.2492V22.3232H16.4892Z" fill="white"/>
<circle cx="185.291" cy="17.3232" r="17" fill="#4A3AFF"/>
<path d="M182.203 22.3232V21.1072C182.928 20.5312 183.622 19.9499 184.283 19.3632C184.944 18.7766 185.531 18.2006 186.043 17.6352C186.566 17.0592 186.976 16.4992 187.275 15.9552C187.574 15.4006 187.723 14.8672 187.723 14.3552C187.723 14.0139 187.664 13.6939 187.547 13.3952C187.43 13.0859 187.238 12.8406 186.971 12.6592C186.704 12.4672 186.347 12.3712 185.899 12.3712C185.227 12.3712 184.72 12.5846 184.379 13.0112C184.048 13.4379 183.888 13.9499 183.899 14.5472H182.251C182.262 13.7579 182.427 13.0966 182.747 12.5632C183.078 12.0299 183.515 11.6246 184.059 11.3472C184.614 11.0699 185.238 10.9312 185.931 10.9312C186.987 10.9312 187.83 11.2299 188.459 11.8272C189.099 12.4139 189.419 13.2352 189.419 14.2912C189.419 14.9206 189.264 15.5446 188.955 16.1632C188.656 16.7819 188.262 17.3792 187.771 17.9552C187.291 18.5206 186.774 19.0539 186.219 19.5552C185.664 20.0566 185.136 20.5099 184.635 20.9152H189.755V22.3232H182.203Z" fill="white"/>
<circle cx="353.381" cy="17.3232" r="17" fill="#4A3AFF"/>
<path d="M353.101 22.5152C352.376 22.5152 351.714 22.3872 351.117 22.1312C350.53 21.8646 350.061 21.4646 349.709 20.9312C349.357 20.3979 349.17 19.7312 349.149 18.9312H350.829C350.85 19.5286 351.053 20.0352 351.437 20.4512C351.832 20.8566 352.386 21.0592 353.101 21.0592C353.784 21.0592 354.306 20.8726 354.669 20.4992C355.032 20.1152 355.213 19.6406 355.213 19.0752C355.213 18.3926 354.968 17.8859 354.477 17.5552C353.997 17.2246 353.405 17.0592 352.701 17.0592H351.869V15.6512H352.717C353.346 15.6512 353.853 15.5019 354.237 15.2032C354.632 14.9046 354.829 14.4832 354.829 13.9392C354.829 13.4806 354.674 13.1072 354.365 12.8192C354.066 12.5312 353.64 12.3872 353.085 12.3872C352.509 12.3872 352.056 12.5579 351.725 12.8992C351.394 13.2299 351.213 13.6459 351.181 14.1472H349.501C349.522 13.4966 349.682 12.9312 349.981 12.4512C350.29 11.9712 350.712 11.5979 351.245 11.3312C351.778 11.0646 352.392 10.9312 353.085 10.9312C353.832 10.9312 354.456 11.0646 354.957 11.3312C355.469 11.5872 355.853 11.9392 356.109 12.3872C356.376 12.8246 356.509 13.3046 356.509 13.8272C356.509 14.4246 356.344 14.9472 356.013 15.3952C355.682 15.8432 355.24 16.1419 354.685 16.2912C355.325 16.4299 355.853 16.7446 356.269 17.2352C356.685 17.7152 356.893 18.3392 356.893 19.1072C356.893 19.7259 356.749 20.2966 356.461 20.8192C356.173 21.3312 355.746 21.7419 355.181 22.0512C354.616 22.3606 353.922 22.5152 353.101 22.5152Z" fill="white"/>
<circle cx="521.471" cy="17.3232" r="17" fill="#4A3AFF"/>
<path d="M522.711 22.3232V20.0832H517.095V18.7392L522.439 11.1232H524.391V18.6112H525.959V20.0832H524.391V22.3232H522.711ZM518.935 18.6112H522.807V12.9952L518.935 18.6112Z" fill="white"/>
</svg>
