<svg width="539" height="35" viewBox="0 0 539 35" fill="none" xmlns="http://www.w3.org/2000/svg">
<rect x="52.2012" y="13.8237" width="98.0907" height="6" rx="3" fill="#4A3AFF"/>
<rect x="220.291" y="13.8237" width="98.0907" height="6" rx="3" fill="#EFF0F7"/>
<rect x="220.291" y="13.8237" width="49.045" height="6" rx="3" fill="#4A3AFF"/>
<rect x="388.381" y="13.8237" width="98.0907" height="6" rx="3" fill="#EFF0F7"/>
<circle cx="17.2012" cy="17.3237" r="17" fill="#4A3AFF"/>
<path d="M16.4892 22.3237V13.0437L14.6812 13.4597V12.2117L17.1612 11.1237H18.2492V22.3237H16.4892Z" fill="white"/>
<circle cx="185.291" cy="17.3237" r="17" fill="#4A3AFF"/>
<path d="M182.203 22.3237V21.1077C182.928 20.5317 183.622 19.9504 184.283 19.3637C184.944 18.7771 185.531 18.2011 186.043 17.6357C186.566 17.0597 186.976 16.4997 187.275 15.9557C187.574 15.4011 187.723 14.8677 187.723 14.3557C187.723 14.0144 187.664 13.6944 187.547 13.3957C187.43 13.0864 187.238 12.8411 186.971 12.6597C186.704 12.4677 186.347 12.3717 185.899 12.3717C185.227 12.3717 184.72 12.5851 184.379 13.0117C184.048 13.4384 183.888 13.9504 183.899 14.5477H182.251C182.262 13.7584 182.427 13.0971 182.747 12.5637C183.078 12.0304 183.515 11.6251 184.059 11.3477C184.614 11.0704 185.238 10.9317 185.931 10.9317C186.987 10.9317 187.83 11.2304 188.459 11.8277C189.099 12.4144 189.419 13.2357 189.419 14.2917C189.419 14.9211 189.264 15.5451 188.955 16.1637C188.656 16.7824 188.262 17.3797 187.771 17.9557C187.291 18.5211 186.774 19.0544 186.219 19.5557C185.664 20.0571 185.136 20.5104 184.635 20.9157H189.755V22.3237H182.203Z" fill="white"/>
<circle cx="353.381" cy="17.3237" r="17" fill="#EFF0F7"/>
<path d="M353.053 23.5157C352.338 23.5157 351.693 23.3877 351.117 23.1317C350.541 22.8651 350.077 22.4704 349.725 21.9477C349.384 21.4251 349.202 20.7744 349.181 19.9957H350.541C350.552 20.6357 350.776 21.1904 351.213 21.6597C351.65 22.1184 352.264 22.3477 353.053 22.3477C353.842 22.3477 354.434 22.1291 354.829 21.6917C355.234 21.2544 355.437 20.7264 355.437 20.1077C355.437 19.5851 355.309 19.1584 355.053 18.8277C354.808 18.4971 354.472 18.2517 354.045 18.0917C353.629 17.9317 353.17 17.8517 352.669 17.8517H351.837V16.7157H352.669C353.394 16.7157 353.96 16.5504 354.365 16.2197C354.781 15.8891 354.989 15.4251 354.989 14.8277C354.989 14.3264 354.824 13.9157 354.493 13.5957C354.173 13.2651 353.693 13.0997 353.053 13.0997C352.434 13.0997 351.938 13.2864 351.565 13.6597C351.192 14.0224 350.984 14.4811 350.941 15.0357H349.581C349.613 14.4277 349.773 13.8891 350.061 13.4197C350.36 12.9504 350.765 12.5877 351.277 12.3317C351.789 12.0651 352.381 11.9317 353.053 11.9317C353.778 11.9317 354.381 12.0597 354.861 12.3157C355.352 12.5717 355.72 12.9131 355.965 13.3397C356.221 13.7664 356.349 14.2357 356.349 14.7477C356.349 15.3131 356.194 15.8304 355.885 16.2997C355.576 16.7584 355.112 17.0677 354.493 17.2277C355.154 17.3664 355.704 17.6811 356.141 18.1717C356.578 18.6624 356.797 19.3077 356.797 20.1077C356.797 20.7264 356.653 21.2971 356.365 21.8197C356.088 22.3317 355.672 22.7424 355.117 23.0517C354.562 23.3611 353.874 23.5157 353.053 23.5157Z" fill="#6F6C90"/>
<circle cx="521.471" cy="17.3237" r="17" fill="#EFF0F7"/>
<path d="M522.727 23.3237V20.9237H517.047V19.8837L522.487 12.1237H524.055V19.7397H525.719V20.9237H524.055V23.3237H522.727ZM518.535 19.7397H522.791V13.6117L518.535 19.7397Z" fill="#6F6C90"/>
</svg>
