<svg width="539" height="35" viewBox="0 0 539 35" fill="none" xmlns="http://www.w3.org/2000/svg">
<rect x="52.2012" y="13.9727" width="98.0907" height="6" rx="3" fill="#4A3AFF"/>
<rect x="220.291" y="13.9727" width="98.0907" height="6" rx="3" fill="#4A3AFF"/>
<rect x="388.381" y="13.9727" width="98.0907" height="6" rx="3" fill="#EFF0F7"/>
<circle cx="17.2012" cy="17.4727" r="17" fill="#4A3AFF"/>
<path d="M16.4892 23V13.72L14.6812 14.136V12.888L17.1612 11.8H18.2492V23H16.4892Z" fill="white"/>
<circle cx="185.291" cy="17.4727" r="17" fill="#4A3AFF"/>
<path d="M182.203 23V21.784C182.928 21.208 183.622 20.6267 184.283 20.04C184.944 19.4533 185.531 18.8773 186.043 18.312C186.566 17.736 186.976 17.176 187.275 16.632C187.574 16.0773 187.723 15.544 187.723 15.032C187.723 14.6907 187.664 14.3707 187.547 14.072C187.43 13.7627 187.238 13.5173 186.971 13.336C186.704 13.144 186.347 13.048 185.899 13.048C185.227 13.048 184.72 13.2613 184.379 13.688C184.048 14.1147 183.888 14.6267 183.899 15.224H182.251C182.262 14.4347 182.427 13.7733 182.747 13.24C183.078 12.7067 183.515 12.3013 184.059 12.024C184.614 11.7467 185.238 11.608 185.931 11.608C186.987 11.608 187.83 11.9067 188.459 12.504C189.099 13.0907 189.419 13.912 189.419 14.968C189.419 15.5973 189.264 16.2213 188.955 16.84C188.656 17.4587 188.262 18.056 187.771 18.632C187.291 19.1973 186.774 19.7307 186.219 20.232C185.664 20.7333 185.136 21.1867 184.635 21.592H189.755V23H182.203Z" fill="white"/>
<circle cx="353.381" cy="17.4727" r="17" fill="#4A3AFF"/>
<path d="M353.101 23.192C352.376 23.192 351.714 23.064 351.117 22.808C350.53 22.5413 350.061 22.1413 349.709 21.608C349.357 21.0747 349.17 20.408 349.149 19.608H350.829C350.85 20.2053 351.053 20.712 351.437 21.128C351.832 21.5333 352.386 21.736 353.101 21.736C353.784 21.736 354.306 21.5493 354.669 21.176C355.032 20.792 355.213 20.3173 355.213 19.752C355.213 19.0693 354.968 18.5627 354.477 18.232C353.997 17.9013 353.405 17.736 352.701 17.736H351.869V16.328H352.717C353.346 16.328 353.853 16.1787 354.237 15.88C354.632 15.5813 354.829 15.16 354.829 14.616C354.829 14.1573 354.674 13.784 354.365 13.496C354.066 13.208 353.64 13.064 353.085 13.064C352.509 13.064 352.056 13.2347 351.725 13.576C351.394 13.9067 351.213 14.3227 351.181 14.824H349.501C349.522 14.1733 349.682 13.608 349.981 13.128C350.29 12.648 350.712 12.2747 351.245 12.008C351.778 11.7413 352.392 11.608 353.085 11.608C353.832 11.608 354.456 11.7413 354.957 12.008C355.469 12.264 355.853 12.616 356.109 13.064C356.376 13.5013 356.509 13.9813 356.509 14.504C356.509 15.1013 356.344 15.624 356.013 16.072C355.682 16.52 355.24 16.8187 354.685 16.968C355.325 17.1067 355.853 17.4213 356.269 17.912C356.685 18.392 356.893 19.016 356.893 19.784C356.893 20.4027 356.749 20.9733 356.461 21.496C356.173 22.008 355.746 22.4187 355.181 22.728C354.616 23.0373 353.922 23.192 353.101 23.192Z" fill="white"/>
<circle cx="521.471" cy="17.4727" r="17" fill="#EFF0F7"/>
<path d="M522.727 23V20.6H517.047V19.56L522.487 11.8H524.055V19.416H525.719V20.6H524.055V23H522.727ZM518.535 19.416H522.791V13.288L518.535 19.416Z" fill="#6F6C90"/>
<rect x="388.381" y="13.9727" width="49.045" height="6" rx="3" fill="#4A3AFF"/>
</svg>
